<svg xmlns="http://www.w3.org/2000/svg" width="50" height="50" enable-background="new 0 0 50 50" viewBox="0 0 50 50"><rect width="12" height="7" x="19" y="36" fill="#515151"/><path fill="#515151" d="M47,10v24H3V10c0-1.7,1.3-3,3-3h38C45.7,7,47,8.3,47,10z"/><rect width="12" height="7" x="19" y="36" opacity=".3"/><path fill="#515151" d="M47,34L47,34c0,1.7-1.3,3-3,3H6c-1.7,0-3-1.3-3-3l0,0H47z"/><rect width="38" height="22" x="6" y="10" fill="#F45145"/><circle cx="43" cy="34.5" r="1.5" fill="#F45145"/><path fill="#515151" d="M40,43H10l0,0c0-1.7,1.3-3,3-3h24C38.7,40,40,41.3,40,43L40,43z"/><path fill="#FFF" d="M47,10v20.7c-19.3-4.9-34.8-12-44-19.9V10c0-1.7,1.3-3,3-3h38C45.7,7,47,8.3,47,10z" opacity=".1"/><path fill="#FFF" d="M14.1 17.1c-.4 0-.8 0-1.2 0 0 1.7 0 2.8 0 4.5-.5-1.7-1.1-2.7-1.6-4.5-.5 0-.7 0-1.2 0 0 2.6 0 5.3 0 7.9.4-.1.8-.1 1.2-.2 0-1.7 0-2.7 0-4.3.6 1.6.9 2.6 1.5 4.1.4 0 .9-.1 1.3-.2C14 22 14 19.5 14.1 17.1M18.7 17.1c-1.2 0-2.3 0-3.4 0 0 2.4 0 4.9 0 7.3 1.2-.1 2.3-.2 3.5-.3 0-.4 0-.9 0-1.2-.8 0-1.5.1-2.2.1 0-.7 0-1.2 0-1.9.5 0 1.1 0 1.7 0 0-.4 0-.9 0-1.2-.6 0-1.1 0-1.7 0 0-.7 0-1 0-1.7.3 0 .7 0 1 0 .1 0 .1 0 .2 0 .1 0 .1 0 .2 0 .3 0 .6 0 .8 0C18.7 17.9 18.7 17.4 18.7 17.1M23.3 17.1c-1.3 0-2.6 0-3.8 0 0 .4 0 .9 0 1.2.1 0 .1 0 .2 0 .2 0 .3 0 .5 0 .2 0 .3 0 .5 0 0 0 .1 0 .1 0 0 2 0 3.8 0 5.7.4 0 .8 0 1.2 0 0-2 0-3.7 0-5.7.4 0 .9 0 1.3 0C23.3 17.9 23.3 17.4 23.3 17.1M27.6 17.1c-1.2 0-2.3 0-3.5 0 0 2.3 0 4.6 0 6.9.1 0 .3 0 .4 0 .3 0 .6 0 .8 0 0-1 0-1.9 0-2.8.1 0 .1 0 .2 0 .2 0 .3 0 .5 0 .2 0 .3 0 .5 0 .2 0 .3 0 .5 0 0-.3 0-.9 0-1.2-.2 0-.3 0-.5 0-.2 0-.3 0-.5 0-.2 0-.3 0-.5 0-.1 0-.1 0-.2 0 0-.6 0-1 0-1.6.1 0 .3 0 .4 0 .1 0 .3 0 .4 0 .1 0 .3 0 .4 0 .3 0 .7 0 1 0C27.6 17.9 27.6 17.4 27.6 17.1M28.4 17.1c0 2.3 0 4.6 0 7 1.1 0 2.3.1 3.4.2 0-.4 0-.9 0-1.2-.7 0-1.4-.1-2.1-.1 0-2 0-3.8 0-5.8C29.3 17.1 28.8 17.1 28.4 17.1M32.8 17.1c0 2.4 0 4.8 0 7.2.4 0 .8.1 1.2.1 0-2.4 0-4.9 0-7.3C33.7 17.1 33.2 17.1 32.8 17.1M35.1 17.1c.5 1.2 1 2.4 1.5 3.7-.5 1.2-1.1 2.5-1.6 3.7.4 0 .9.1 1.3.2.3-.8.6-1.4.9-2.1.3.8.6 1.5.9 2.3.4.1 1 .1 1.4.2-.5-1.4-1.1-2.9-1.6-4.2.5-1.2 1.1-2.4 1.6-3.7-.4 0-.9 0-1.4 0-.3.8-.6 1.3-.9 2.1-.3-.8-.5-1.3-.8-2.1C36 17.1 35.6 17.1 35.1 17.1"/></svg>